<svg data-v-423bf9ae="" xmlns="http://www.w3.org/2000/svg" viewBox="0 0 236.69389504365688 60" class="font"><!----><!----><!----><g data-v-423bf9ae="" id="fe75b384-7617-436a-86c4-a1bb5ee6736e" fill="white" transform="matrix(6.122449456230433,0,0,6.122449456230433,1.7755086548815342,-11.816328097660907)"><path d="M-0.29 3.57L-0.29 1.93L5.46 1.93L5.46 3.57L3.55 3.57L3.55 10.34L4.42 10.34L4.42 10.54L3.55 10.54L3.55 11.29L3.04 11.29L3.04 11.55L3.40 11.55L3.40 11.73L1.66 11.73L1.66 11.73Q1.63 11.73 1.63 11.70L1.63 11.70L1.63 3.57L-0.29 3.57ZM3.54 10.34L2.88 10.34L2.88 10.54L3.54 10.54L3.54 10.34ZM5.07 1.93L5.07 1.93L7.15 1.93L7.15 1.93Q7.17 2.10 7.94 5.75L7.94 5.75L8.37 5.75L8.37 6.13L7.85 6.13L7.85 5.75L7.12 5.75L7.12 6.13L7.85 6.13L7.85 7.88L8.08 7.88L8.08 8.79L8.65 8.79L8.65 7.45L8.87 7.45L8.87 6.13L9.28 6.13L9.28 5.75L8.96 5.75L8.96 5.75Q9.73 2.10 9.75 1.93L9.75 1.93L11.83 1.93L11.83 1.93Q10.70 6.84 10.70 6.93L10.70 6.93L10.70 8.63L10.12 8.63L10.12 8.98L10.55 8.98L10.55 9.97L9.78 9.97L9.78 11.73L7.35 11.73L7.35 11.73Q7.31 11.73 7.15 10.98L7.15 10.98L7.78 10.98L7.78 10.57L7.08 10.57L7.08 10.57Q7.03 10.57 6.88 9.78L6.88 9.78L6.88 9.78Q6.81 9.54 5.07 1.93ZM9.89 10.44L9.89 10.05L10.10 10.05L10.10 10.05Q10.19 10.05 10.23 10.15L10.23 10.15L10.18 10.26L10.18 10.26Q10.21 10.26 10.23 10.44L10.23 10.44L10.16 10.44L10.16 10.44Q10.12 10.44 10.10 10.29L10.10 10.29L9.98 10.29L9.98 10.44L9.89 10.44ZM10.09 10.12L9.98 10.12L9.98 10.21L10.09 10.21L10.09 10.21Q10.12 10.21 10.12 10.17L10.12 10.17L10.12 10.15L10.12 10.15Q10.12 10.12 10.09 10.12L10.09 10.12ZM9.89 10.98L9.89 10.58L10.18 10.58L10.18 10.64L10.18 10.64Q10.18 10.67 10.14 10.67L10.14 10.67L9.98 10.67L9.98 10.73L10.14 10.73L10.14 10.81L9.98 10.81L9.98 10.98L9.89 10.98ZM9.89 11.52L9.89 11.12L9.98 11.12L9.98 11.52L9.89 11.52ZM19.48 1.93L19.48 1.93L19.48 1.93Q21.53 1.93 22.07 3.21L22.07 3.21L22.07 3.21Q22.22 3.53 22.22 3.63L22.22 3.63L21.36 3.63L21.36 3.89L22.28 3.89L22.28 3.88L22.28 3.88Q22.28 3.81 22.22 3.63L22.22 3.63L23.80 3.63L23.80 3.89L22.30 3.89L22.30 3.91L22.30 3.91Q22.42 4.46 22.46 5.09L22.46 5.09L22.46 5.09Q22.46 5.13 20.67 5.22L20.67 5.22L20.67 5.21L20.67 5.21Q20.67 3.58 19.54 3.58L19.54 3.58L19.35 3.58L19.35 3.58Q18.51 3.58 18.33 4.29L18.33 4.29L18.33 4.29Q18.18 4.89 18.18 5.87L18.18 5.87L18.18 7.20L18.16 7.40L17.54 7.40L17.54 7.71L18.16 7.71L18.16 10.08L20.80 10.08L20.80 7.62L22.31 7.62L22.31 10.08L21.47 10.08L21.47 11.60L19.71 11.60L19.71 11.73L18.35 11.73L18.35 11.60L16.96 11.60L16.96 10.84L17.88 10.84L17.88 10.51L16.50 10.51L16.50 9.39L15.91 9.39L15.91 8.01L16.22 8.01L16.22 8.01Q16.20 7.15 16.20 6.66L16.20 6.66L16.20 6.66Q16.20 4.42 16.42 3.84L16.42 3.84L16.42 3.84Q16.62 3.17 17.08 2.69L17.08 2.69L17.08 2.69Q17.89 1.93 19.48 1.93ZM18.29 9.59L18.29 9.59L18.38 9.59L18.38 9.93L18.57 9.93L18.57 10.04L18.29 10.04L18.29 10.04Q18.27 10.04 18.27 10.00L18.27 10.00L18.27 9.63L18.27 9.63Q18.27 9.59 18.29 9.59ZM20.35 9.60L20.35 9.59L20.45 9.59L20.45 9.59Q20.54 9.66 20.54 9.72L20.54 9.72L20.54 9.72Q20.55 9.72 20.65 9.59L20.65 9.59L20.73 9.59L20.73 9.63L20.73 9.63Q20.62 9.78 20.62 9.84L20.62 9.84L20.62 9.84Q20.64 9.84 20.75 10.01L20.75 10.01L20.75 10.04L20.65 10.04L20.54 9.91L20.54 9.91Q20.47 10.02 20.44 10.04L20.44 10.04L20.34 10.04L20.34 10.04Q20.37 9.97 20.49 9.80L20.49 9.80L20.35 9.60ZM21.70 10.19L21.70 10.19L21.70 10.19Q21.87 10.23 21.87 10.28L21.87 10.28L21.87 10.35L21.80 10.35L21.74 10.28L21.67 10.28L21.67 10.28Q21.64 10.29 21.64 10.32L21.64 10.32L21.64 10.35L21.64 10.35Q21.89 10.40 21.89 10.46L21.89 10.46L21.89 10.51L21.89 10.51Q21.89 10.64 21.74 10.64L21.74 10.64L21.67 10.64L21.67 10.64Q21.58 10.64 21.53 10.55L21.53 10.55L21.53 10.48L21.62 10.48L21.62 10.48Q21.62 10.56 21.72 10.56L21.72 10.56L21.74 10.56L21.74 10.56Q21.76 10.56 21.79 10.51L21.79 10.51L21.79 10.51Q21.79 10.49 21.55 10.40L21.55 10.40L21.54 10.36L21.54 10.28L21.54 10.28Q21.54 10.23 21.70 10.19ZM22.90 7.49L22.90 1.96L26.25 1.96L26.25 1.96Q27.93 1.96 28.42 3.14L28.42 3.14L28.42 3.14Q28.64 3.75 28.64 4.53L28.64 4.53L28.64 4.94L28.64 4.94Q28.64 6.36 28.01 7.11L28.01 7.11L27.30 7.11L27.30 7.47L28.39 7.47L28.39 9.81L27.75 9.81L27.75 10.17L28.72 10.17L28.72 11.55L26.68 11.55L26.68 9.34L25.89 9.34L25.89 7.92L24.53 7.92L24.53 10.34L24.82 10.34L24.82 11.73L22.93 11.73L22.93 11.73Q22.90 11.73 22.90 11.70L22.90 11.70L22.90 7.77L23.74 7.77L23.74 7.49L22.90 7.49ZM25.63 3.55L24.82 3.55L24.82 6.31L25.29 6.31L25.29 6.31Q26.33 6.31 26.50 6.11L26.50 6.11L26.50 6.11Q26.67 6.00 26.76 5.67L26.76 5.67L27.49 5.67L27.49 5.32L26.83 5.32L26.83 5.35L26.83 5.35Q26.78 5.67 26.75 5.67L26.75 5.67L25.81 5.67L25.81 5.32L26.80 5.32L26.80 5.32Q26.83 5.32 26.83 5.29L26.83 5.29L26.83 5.29Q26.84 4.87 26.84 4.81L26.84 4.81L26.84 4.81Q26.84 3.90 26.53 3.69L26.53 3.69L26.53 3.69Q26.28 3.55 25.63 3.55L25.63 3.55ZM29.52 1.93L29.52 1.93L31.37 1.93L31.37 1.93Q31.40 1.94 31.40 1.97L31.40 1.97L31.40 6.73L31.40 6.73Q31.40 6.76 31.37 6.76L31.37 6.76L31.15 6.76L31.15 11.70L31.15 11.70Q31.15 11.73 31.12 11.73L31.12 11.73L29.52 11.73L29.52 11.73Q29.49 11.73 29.49 11.70L29.49 11.70L29.49 6.64L29.00 6.64L29.00 6.64Q28.96 6.64 28.96 6.61L28.96 6.61L28.96 6.40L28.96 6.40Q28.97 6.36 29.00 6.36L29.00 6.36L29.49 6.36L29.49 1.97L29.49 1.97Q29.50 1.93 29.52 1.93ZM30.45 6.36L29.50 6.36L29.50 6.64L30.45 6.64L30.45 6.36ZM32.06 2.02L32.06 2.02L34.82 2.02L34.82 2.02Q36.66 2.02 37.16 2.95L37.16 2.95L37.16 2.95Q37.44 3.44 37.44 4.28L37.44 4.28L37.44 4.96L37.44 4.96Q37.44 5.91 36.61 6.50L36.61 6.50L36.61 6.50Q36.89 6.55 37.32 6.93L37.32 6.93L37.54 6.93L37.54 6.93Q37.95 7.36 38.07 7.75L38.07 7.75L38.07 7.75Q38.10 7.88 38.10 7.90L38.10 7.90L38.37 7.90L38.37 8.06L37.49 8.06L37.49 7.90L35.68 7.90L35.68 7.38L33.91 7.38L33.91 10.21L35.02 10.21L35.02 10.01L35.68 10.01L35.68 8.06L37.49 8.06L37.49 9.78L37.69 9.78L37.69 10.85L37.09 10.85L37.09 11.10L37.69 11.10L37.69 11.55L35.40 11.55L35.40 11.73L32.89 11.73L32.89 11.55L32.35 11.55L32.35 10.06L33.09 10.06L33.09 9.66L32.35 9.66L32.35 9.66Q32.33 8.52 32.33 7.96L32.33 7.96L32.33 7.25L31.70 7.25L31.70 7.07L32.33 7.07L32.33 6.69L32.03 6.69L32.03 2.06L32.03 2.06Q32.03 2.02 32.06 2.02ZM34.25 3.66L33.94 3.66L33.94 6.07L34.35 6.07L34.35 6.07Q35.08 6.07 35.31 5.82L35.31 5.82L35.31 5.82Q35.55 5.63 35.55 4.76L35.55 4.76L35.55 4.72L35.55 4.72Q35.55 3.99 35.31 3.83L35.31 3.83L35.31 3.83Q35.16 3.66 34.25 3.66L34.25 3.66ZM33.24 7.07L32.35 7.07L32.35 7.25L33.24 7.25L33.24 7.07ZM34.77 8.06L34.77 7.90L35.68 7.90L35.68 8.06L34.77 8.06Z"></path></g><!----><!----></svg>